<svg xmlns="http://www.w3.org/2000/svg" xmlns:xlink="http://www.w3.org/1999/xlink" width="500" zoomAndPan="magnify" viewBox="0 0 375 374.999991" height="500" preserveAspectRatio="xMidYMid meet" version="1.0"><defs><g/></defs><g fill="#ffffff" fill-opacity="1"><g transform="translate(56.533769, 237.199861)"><g><path d="M 52 -52 L 52 0 L 38.984375 0 L 38.984375 -52 L 13.015625 -52 L 13.015625 0 L 0 0 L 0 -65.03125 L 38.984375 -65.03125 L 38.984375 -52 Z M 52 -52 "/></g></g></g><g fill="#ffffff" fill-opacity="1"><g transform="translate(148.480403, 237.199861)"><g><path d="M 13.015625 -39.046875 L 38.984375 -39.046875 L 38.984375 -52 L 13.015625 -52 L 13.015625 -65.03125 L 38.984375 -65.03125 L 38.984375 -52 L 52 -52 L 52 0 L 13.015625 0 L 13.015625 -13.015625 L 0 -13.015625 L 0 -26.03125 L 13.015625 -26.03125 Z M 13.140625 -26.03125 L 13.140625 -13.015625 L 38.984375 -13.015625 L 38.984375 -26.03125 Z M 13.015625 -39.109375 L 0 -39.109375 L 0 -52 L 13.015625 -52 Z M 13.015625 -39.109375 "/></g></g></g><g fill="#ffffff" fill-opacity="1"><g transform="translate(240.427037, 237.199861)"><g><path d="M 52 -52 L 52 0 L 38.984375 0 L 38.984375 -52 L 13.015625 -52 L 13.015625 0 L 0 0 L 0 -65.03125 L 38.984375 -65.03125 L 38.984375 -52 Z M 52 -52 "/></g></g></g></svg>