<svg xmlns="http://www.w3.org/2000/svg" xmlns:xlink="http://www.w3.org/1999/xlink" width="500" zoomAndPan="magnify" viewBox="0 0 375 374.999991" height="500" preserveAspectRatio="xMidYMid meet" version="1.0"><defs><g/></defs><g fill="#000000" fill-opacity="1"><g transform="translate(108.880389, 187.401813)"><g><path d="M 39.03125 -31.21875 L 39.03125 0 L 23.40625 0 L 23.40625 -31.21875 L 15.625 -31.21875 L 15.625 0 L 0 0 L 0 -39.03125 L 31.21875 -39.03125 L 31.21875 -31.21875 Z M 39.03125 -31.21875 "/></g></g></g><g fill="#000000" fill-opacity="1"><g transform="translate(164.07575, 187.401813)"><g><path d="M 0 -31.21875 L 7.8125 -31.21875 L 7.8125 -39.03125 L 31.21875 -39.03125 L 31.21875 -31.21875 L 39.03125 -31.21875 L 39.03125 0 L 7.8125 0 L 7.8125 -7.8125 L 0 -7.8125 L 0 -15.625 L 7.8125 -15.625 L 7.8125 -23.4375 L 0 -23.4375 Z M 15.625 -15.625 L 15.625 -7.8125 L 23.40625 -7.8125 L 23.40625 -15.625 Z M 15.625 -31.21875 L 15.625 -23.4375 L 23.40625 -23.4375 L 23.40625 -31.21875 Z M 15.625 -31.21875 "/></g></g></g><g fill="#000000" fill-opacity="1"><g transform="translate(219.271111, 187.401813)"><g><path d="M 39.03125 -31.21875 L 39.03125 0 L 23.40625 0 L 23.40625 -31.21875 L 15.625 -31.21875 L 15.625 0 L 0 0 L 0 -39.03125 L 31.21875 -39.03125 L 31.21875 -31.21875 Z M 39.03125 -31.21875 "/></g></g></g></svg>